<?xml version="1.0" standalone="no"?>
<!DOCTYPE svg PUBLIC "-//W3C//DTD SVG 20010904//EN"
 "http://www.w3.org/TR/2001/REC-SVG-20010904/DTD/svg10.dtd">
<svg version="1.0" xmlns="http://www.w3.org/2000/svg"
 width="1736.000000pt" height="1736.000000pt" viewBox="0 0 1736.000000 1736.000000"
 preserveAspectRatio="xMidYMid meet">
<metadata>
Created by potrace 1.11, written by Peter Selinger 2001-2013
</metadata>
<g transform="translate(0.000000,1736.000000) scale(0.100000,-0.100000)"
fill="#000000" stroke="none">
<path d="M8636 17303 c-1 -1 -49 -5 -106 -8 -133 -7 -270 -19 -340 -30 -35 -5
-77 -11 -147 -20 -21 -3 -49 -7 -63 -10 -14 -3 -38 -8 -55 -10 -31 -6 -94 -18
-107 -21 -5 -1 -9 -2 -10 -3 -2 -2 -15 -4 -30 -6 -15 -2 -55 -11 -90 -20 -35
-9 -70 -18 -78 -20 -8 -2 -36 -10 -62 -18 -27 -8 -48 -13 -48 -10 0 3 -6 1
-12 -4 -11 -9 -36 -17 -83 -29 -5 -1 -48 -16 -95 -34 -47 -17 -94 -33 -104
-35 -11 -3 -23 -10 -26 -16 -4 -6 -11 -11 -16 -11 -5 0 -19 -4 -32 -9 -13 -5
-25 -9 -27 -9 -8 0 -252 -121 -310 -153 -66 -37 -212 -129 -232 -146 -7 -6
-15 -11 -17 -11 -5 0 -47 -31 -141 -102 -111 -85 -346 -309 -439 -419 -88
-104 -256 -339 -256 -358 0 -6 -4 -11 -9 -11 -5 0 -14 -15 -22 -32 -7 -18 -16
-35 -20 -38 -21 -15 -163 -318 -209 -445 -31 -88 -35 -99 -40 -120 -1 -5 -6
-16 -12 -22 -6 -7 -8 -13 -4 -13 3 0 1 -12 -5 -27 -10 -25 -35 -113 -44 -153
-2 -8 -8 -35 -14 -60 -17 -67 -27 -117 -36 -180 -3 -19 -8 -46 -12 -60 -3 -14
-7 -36 -9 -50 -21 -174 -24 -212 -29 -330 -9 -202 -5 -435 10 -548 3 -20 8
-68 11 -107 3 -38 8 -79 10 -90 9 -42 16 -91 19 -125 2 -19 4 -35 5 -35 2 0 6
-19 14 -65 3 -19 8 -46 11 -60 5 -26 11 -53 21 -105 5 -26 40 -178 49 -215 3
-8 9 -33 15 -55 10 -36 15 -60 25 -105 2 -8 4 -16 5 -17 2 -2 3 -6 4 -10 1 -5
10 -34 19 -65 10 -32 18 -61 19 -65 5 -41 166 -481 231 -633 6 -14 11 -27 12
-30 7 -20 30 -73 51 -115 14 -27 26 -52 25 -55 -1 -11 152 -316 167 -332 8
-10 12 -18 7 -18 -4 0 -3 -6 2 -12 6 -7 25 -40 43 -73 40 -76 139 -248 162
-283 10 -15 21 -34 25 -42 4 -8 31 -52 60 -97 29 -46 53 -85 53 -88 0 -3 5
-11 11 -18 6 -7 55 -77 110 -157 126 -185 121 -179 139 -200 8 -10 46 -61 84
-114 39 -53 73 -96 78 -96 4 0 8 -5 8 -11 0 -6 6 -17 13 -24 24 -28 40 -48 75
-94 19 -25 39 -47 44 -49 4 -2 8 -10 8 -17 0 -7 4 -15 8 -17 5 -1 44 -46 88
-98 113 -135 118 -141 131 -154 6 -7 41 -48 78 -92 70 -83 153 -178 195 -225
14 -15 34 -38 44 -50 11 -13 49 -58 85 -99 36 -41 73 -84 83 -95 9 -11 30 -34
45 -51 37 -41 114 -131 133 -156 8 -11 35 -41 59 -66 24 -26 44 -49 44 -52 1
-3 15 -20 32 -38 64 -71 115 -174 128 -257 1 -11 5 -24 9 -30 3 -5 9 -24 12
-41 l7 -30 -73 -17 c-40 -10 -82 -19 -93 -22 -11 -2 -38 -9 -61 -14 -83 -21
-122 -21 -186 -1 -35 10 -74 21 -88 24 -14 2 -47 12 -75 21 -27 9 -61 18 -75
21 -14 3 -54 14 -90 24 -87 26 -250 72 -264 74 -6 1 -17 5 -23 9 -7 5 -13 6
-13 3 0 -3 -12 -1 -27 5 -16 6 -35 12 -43 15 -21 5 -143 39 -225 62 -38 11
-113 32 -165 47 -52 14 -102 29 -110 32 -8 3 -24 8 -34 10 -21 4 -245 79 -286
96 -14 6 -27 11 -30 11 -8 2 -103 37 -130 48 -95 40 -110 43 -111 21 -7 -139
-38 -239 -94 -298 -42 -44 -146 -85 -207 -81 -16 1 -28 0 -28 -4 0 -5 -102 -4
-187 2 -24 2 -43 1 -43 -2 0 -3 -10 -6 -22 -6 -27 0 -81 -14 -88 -23 -3 -3
-32 -26 -65 -51 -33 -24 -65 -49 -71 -55 -6 -5 -28 -23 -49 -40 -20 -16 -42
-35 -49 -40 -6 -6 -47 -42 -91 -80 -117 -101 -112 -95 -90 -111 10 -7 30 -24
44 -36 14 -13 64 -54 111 -93 92 -76 102 -83 125 -103 8 -7 15 -10 15 -7 0 4
7 0 15 -9 26 -25 132 -86 197 -113 95 -38 184 -52 311 -46 143 6 148 6 172 1
37 -7 86 -43 101 -73 19 -39 19 -140 0 -186 -8 -20 -13 -39 -10 -42 4 -4 220
64 284 90 8 3 20 7 25 9 6 1 174 57 375 124 201 67 374 124 385 126 11 2 31 8
45 13 21 8 182 58 215 67 64 17 218 53 245 58 19 3 44 7 55 10 11 2 45 7 75
11 30 4 62 9 70 10 127 23 375 27 414 5 35 -18 57 -61 58 -109 0 -45 -6 -70
-39 -136 -27 -57 -29 -60 -100 -173 -29 -45 -53 -87 -53 -92 0 -4 -6 -10 -12
-13 -8 -2 13 -28 49 -61 72 -66 114 -127 144 -205 40 -106 45 -171 43 -521 -3
-501 -18 -907 -40 -1085 -3 -27 -8 -68 -10 -90 -3 -22 -6 -53 -8 -70 -2 -16
-7 -52 -10 -80 -3 -27 -8 -61 -11 -75 -3 -14 -7 -46 -9 -72 -2 -25 -6 -54 -9
-65 -3 -10 -9 -40 -12 -68 -10 -74 -14 -97 -19 -130 -3 -16 -8 -46 -10 -65 -3
-19 -8 -51 -11 -70 -4 -19 -8 -46 -10 -60 -2 -14 -16 -92 -30 -175 -15 -82
-28 -159 -29 -170 -2 -20 -15 -92 -22 -130 -3 -11 -7 -36 -10 -55 -7 -49 -13
-81 -18 -106 -2 -12 -7 -39 -11 -60 -3 -22 -8 -54 -11 -73 -3 -18 -8 -43 -10
-55 -3 -11 -7 -36 -9 -54 -2 -18 -6 -41 -9 -50 -3 -9 -8 -35 -11 -57 -3 -23
-8 -52 -10 -65 -3 -14 -8 -41 -11 -60 -3 -19 -7 -42 -9 -50 -2 -8 -7 -35 -10
-60 -3 -25 -8 -52 -10 -60 -2 -8 -6 -28 -9 -45 -2 -16 -8 -50 -12 -75 -4 -25
-8 -54 -10 -65 -2 -11 -5 -31 -8 -45 -2 -14 -10 -59 -16 -100 -6 -41 -14 -86
-16 -100 -3 -14 -6 -48 -9 -77 -2 -29 -5 -56 -8 -60 -2 -4 -8 -30 -11 -58 -14
-94 -17 -120 -21 -145 -7 -47 -17 -125 -20 -160 -2 -19 -4 -35 -5 -35 -2 0 -7
-42 -14 -110 -3 -28 -7 -64 -10 -80 -7 -43 -25 -182 -30 -240 -11 -115 -17
-164 -26 -235 -5 -41 -12 -102 -15 -135 -15 -147 -23 -229 -30 -290 -3 -22 -7
-65 -10 -95 -4 -52 -9 -100 -20 -195 -2 -22 -7 -71 -10 -108 -4 -37 -8 -78
-11 -90 -2 -12 -6 -58 -9 -102 -3 -44 -7 -91 -10 -105 -3 -14 -8 -61 -11 -104
-3 -44 -8 -89 -11 -100 -3 -12 -7 -106 -9 -210 l-4 -188 50 53 c27 30 50 57
50 62 0 4 4 7 8 7 5 0 40 31 78 68 38 37 96 88 129 112 33 25 62 47 65 50 10
11 137 90 192 119 31 17 65 35 75 40 15 8 43 20 63 26 3 1 16 6 30 12 107 46
200 73 300 89 19 3 43 7 52 10 20 6 197 17 253 16 69 -2 177 -11 209 -18 17
-4 40 -8 51 -10 20 -3 32 -5 90 -19 193 -46 468 -183 643 -323 111 -88 263
-238 340 -336 44 -54 47 -57 53 -35 3 13 2 31 -2 40 -4 8 -4 21 0 28 5 7 5 28
1 46 -4 18 -4 39 1 46 4 7 6 16 3 20 -4 7 -14 190 -17 326 -1 40 -4 73 -7 73
-3 0 -6 28 -6 63 -2 59 -11 183 -19 257 -2 19 -5 55 -6 80 -1 25 -6 55 -10 67
-5 13 -4 25 2 28 5 4 7 11 3 16 -7 13 -12 41 -19 127 -3 41 -8 88 -10 105 -3
18 -7 52 -9 77 -3 25 -7 61 -10 80 -3 19 -8 62 -11 95 -8 70 -12 105 -19 160
-3 22 -8 65 -11 95 -4 30 -10 80 -16 110 -5 30 -11 75 -14 100 -3 25 -7 56
-10 70 -2 14 -7 45 -10 70 -3 25 -10 71 -15 104 -5 32 -9 61 -8 65 1 3 -1 20
-5 36 -7 30 -14 77 -23 150 -2 22 -8 54 -13 70 -4 17 -7 40 -6 52 1 13 -1 23
-4 23 -4 0 -7 15 -8 32 -1 18 -4 44 -7 58 -3 14 -8 45 -11 70 -3 25 -7 52 -10
60 -3 13 -10 53 -20 125 -3 18 -6 35 -21 120 -3 17 -7 39 -9 50 -1 11 -5 36
-9 55 -9 49 -15 89 -22 130 -6 39 -7 43 -30 180 -9 52 -18 104 -20 115 -3 11
-7 36 -10 55 -3 19 -7 41 -9 48 -3 7 -8 39 -11 70 -3 31 -8 60 -10 63 -2 3 -6
21 -9 40 -12 72 -25 145 -31 179 -8 44 -13 74 -18 103 -1 12 -6 36 -9 52 -3
17 -9 46 -11 65 -3 19 -8 46 -10 60 -8 39 -44 260 -51 305 -3 22 -8 47 -10 55
-3 8 -7 38 -9 65 -3 28 -7 66 -10 85 -5 34 -7 49 -21 150 -8 61 -15 127 -20
175 -2 22 -6 63 -9 90 -3 28 -9 77 -12 110 -3 33 -7 76 -10 95 -2 19 -6 73 -9
120 -7 97 -13 149 -20 160 -3 5 -1 11 5 15 6 4 7 11 4 17 -7 11 -9 32 -19 158
-3 47 -8 103 -10 126 -2 22 -6 88 -10 145 -6 106 -7 117 -21 294 -8 104 -9
358 -1 410 26 175 82 291 194 403 64 65 71 76 60 93 -6 10 -15 19 -19 19 -5 0
-8 5 -8 11 0 6 -13 29 -28 52 -61 90 -113 261 -103 343 2 22 40 54 87 76 53
24 179 31 259 15 22 -5 49 -10 60 -12 45 -7 94 -17 170 -36 44 -10 89 -21 100
-24 71 -16 251 -71 338 -104 31 -11 83 -30 115 -42 68 -25 374 -145 417 -164
17 -7 89 -36 160 -65 72 -28 144 -58 160 -65 62 -27 211 -87 227 -92 13 -4 19
5 28 39 16 63 70 187 102 235 39 57 104 111 152 125 23 6 82 10 131 9 160 -5
189 -5 250 1 109 11 201 44 288 105 57 40 59 41 137 131 47 55 53 66 42 83 -7
10 -18 29 -24 41 -7 12 -17 28 -23 34 -5 7 -28 35 -50 61 -61 75 -173 156
-245 177 -100 28 -136 35 -216 41 -216 15 -321 52 -407 145 -70 74 -102 157
-106 278 -1 36 -15 41 -60 17 -23 -12 -370 -122 -406 -129 -5 -1 -16 -5 -22
-9 -7 -5 -13 -6 -13 -3 0 3 -19 -2 -42 -10 -24 -9 -50 -17 -58 -19 -66 -18
-96 -26 -170 -50 -47 -14 -92 -28 -100 -30 -8 -2 -16 -4 -17 -5 -3 -3 -3 -3
-53 -14 -19 -5 -39 -11 -45 -14 -5 -4 -15 -7 -22 -8 -7 -1 -44 -12 -83 -24
-39 -12 -76 -23 -83 -24 -7 -2 -19 -6 -27 -9 -23 -9 -402 -117 -428 -122 -12
-2 -26 -6 -30 -9 -5 -3 -19 -7 -33 -10 -13 -3 -55 -14 -94 -26 -88 -27 -121
-33 -165 -33 -44 0 -65 4 -192 38 -46 12 -64 17 -75 17 -12 1 -9 9 74 173 51
101 92 160 160 230 6 7 31 34 54 61 41 48 134 155 174 200 78 87 154 172 178
196 15 16 27 30 27 32 0 3 15 20 33 38 17 19 50 56 72 82 22 26 51 60 65 75
14 15 50 56 80 92 30 35 60 69 66 74 6 6 30 35 55 65 24 30 52 64 61 75 46 55
54 65 73 91 29 40 142 185 165 212 11 13 20 26 20 28 0 2 20 30 45 63 25 32
45 62 45 65 0 4 9 17 20 28 11 12 50 67 87 122 37 56 71 106 76 111 43 52 320
501 407 660 18 33 41 74 50 90 9 17 38 71 65 120 26 50 50 95 53 100 4 6 7 12
8 15 0 3 30 66 66 140 54 113 145 315 177 395 5 11 13 31 19 45 6 14 13 32 14
40 2 8 6 17 9 20 4 4 61 152 65 170 0 3 5 16 11 30 9 22 76 217 79 230 0 3 3
12 7 20 3 8 15 49 27 90 12 41 27 91 33 110 6 19 12 40 13 45 1 6 19 75 39
155 38 151 42 166 50 215 3 17 8 37 10 45 2 8 6 26 9 40 34 198 43 254 50 320
2 19 7 62 10 95 24 228 19 624 -10 785 -5 27 -11 70 -19 128 -3 20 -7 44 -10
52 -4 15 -9 35 -21 95 -10 50 -64 237 -82 285 -9 25 -17 48 -18 53 -1 4 -3 9
-4 12 -1 3 -3 8 -4 13 -2 4 -8 21 -15 37 -8 17 -17 39 -21 50 -23 57 -163 335
-170 335 -4 0 -10 8 -14 18 -10 29 -89 157 -107 172 -3 3 -11 15 -18 27 -12
24 -153 204 -205 263 -45 50 -303 308 -356 356 -59 52 -223 183 -280 223 -114
79 -304 201 -314 201 -3 0 -28 13 -56 30 -27 16 -50 26 -50 22 0 -4 -4 -2 -8
5 -16 25 -341 162 -517 218 -49 15 -97 30 -105 33 -8 3 -22 6 -31 8 -8 2 -42
10 -75 19 -67 18 -189 46 -219 50 -11 2 -38 6 -60 10 -22 3 -49 8 -60 9 -11 2
-42 7 -70 11 -27 5 -66 9 -85 11 -19 1 -35 3 -35 4 0 9 -570 32 -579 23z m324
-687 c19 -3 64 -8 100 -11 36 -2 65 -5 65 -5 0 -2 38 -10 80 -16 22 -3 58 -10
80 -16 22 -5 59 -13 82 -18 113 -24 339 -97 405 -131 10 -5 22 -9 27 -9 19 0
202 -87 336 -160 113 -61 373 -226 395 -250 3 -3 21 -17 40 -30 19 -13 37 -27
40 -30 3 -3 25 -21 50 -40 77 -59 102 -82 200 -180 128 -127 168 -175 255
-305 78 -118 173 -296 191 -360 1 -5 16 -45 32 -87 17 -43 28 -78 25 -78 -3 0
0 -7 7 -15 7 -8 10 -15 7 -15 -3 0 2 -21 10 -47 8 -27 16 -57 19 -68 5 -26 23
-114 29 -145 3 -14 8 -45 11 -70 3 -25 8 -56 9 -70 19 -133 24 -446 12 -630
-7 -99 -10 -127 -21 -210 -3 -19 -7 -57 -11 -85 -8 -71 -42 -282 -66 -405 -6
-30 -12 -64 -14 -75 -2 -11 -15 -72 -30 -135 -14 -63 -28 -124 -30 -135 -19
-90 -120 -458 -130 -476 -4 -5 -8 -19 -10 -31 -3 -13 -9 -32 -13 -43 -5 -11
-20 -51 -32 -90 -13 -38 -33 -92 -45 -120 -13 -27 -26 -61 -30 -75 -29 -97
-217 -465 -369 -725 -31 -52 -90 -141 -98 -146 -6 -3 -9 -9 -8 -13 1 -4 -5
-17 -14 -29 -81 -112 -126 -179 -126 -186 0 -5 -4 -11 -8 -13 -5 -1 -22 -21
-38 -43 -16 -23 -35 -47 -41 -55 -7 -8 -38 -49 -70 -90 -31 -41 -60 -76 -65
-78 -4 -2 -8 -10 -8 -17 0 -7 -4 -15 -9 -17 -4 -1 -45 -47 -89 -100 -45 -54
-90 -106 -99 -116 -42 -44 -73 -85 -73 -95 0 -6 -3 -8 -6 -4 -3 3 -27 -18 -52
-46 -85 -96 -136 -150 -302 -316 -180 -181 -203 -201 -225 -201 -8 0 -15 -4
-15 -10 0 -5 -11 -10 -25 -10 -14 0 -25 -4 -25 -9 0 -5 -16 -12 -36 -16 -20
-3 -44 -10 -53 -15 -52 -28 -104 -40 -117 -29 -8 7 -13 14 -10 16 2 3 -5 37
-16 76 -11 40 -22 86 -25 102 -2 17 -8 46 -12 65 -10 45 -5 97 14 164 9 29 18
62 20 72 17 73 95 352 106 382 6 15 13 38 15 52 3 14 8 34 11 45 4 11 8 23 9
28 1 4 3 9 4 12 1 3 3 8 4 13 10 36 38 130 93 312 35 118 71 239 79 268 8 30
19 62 24 73 6 10 8 19 6 19 -3 0 -1 12 5 28 6 15 12 34 14 42 14 61 85 273
115 345 5 11 13 34 18 50 9 30 9 31 -26 32 -57 1 -154 34 -196 67 -65 51 -104
116 -122 206 -2 8 -6 53 -9 100 -7 124 -15 161 -47 240 -19 45 -52 105 -65
118 -7 7 -13 17 -13 21 0 4 -34 43 -76 87 -78 80 -157 172 -184 214 -8 12 -20
28 -25 34 -6 6 -18 23 -28 39 -17 26 -18 26 -36 10 -25 -25 -252 -331 -305
-411 -50 -76 -55 -97 -59 -234 -1 -54 -4 -98 -7 -98 -3 0 -6 -15 -7 -34 -2
-36 -24 -110 -48 -156 -46 -88 -176 -170 -313 -196 -24 -4 -23 -10 3 -80 26
-67 104 -284 106 -294 1 -3 5 -16 10 -29 5 -13 11 -31 13 -40 2 -9 6 -23 9
-31 6 -15 148 -477 152 -495 1 -5 5 -19 9 -30 17 -43 22 -61 106 -350 29 -99
56 -189 61 -200 5 -11 10 -31 12 -45 1 -14 5 -29 8 -35 3 -5 16 -48 28 -95 13
-47 27 -95 31 -107 11 -27 6 -164 -8 -223 -6 -25 -14 -61 -17 -80 -3 -19 -8
-36 -11 -39 -6 -6 -102 23 -197 61 -74 29 -85 38 -240 192 -151 151 -295 301
-342 357 -11 13 -54 62 -95 109 -41 47 -79 90 -85 97 -5 6 -19 23 -30 37 -11
14 -29 36 -40 49 -82 96 -236 295 -267 345 -11 17 -24 32 -29 32 -5 0 -9 5 -9
11 0 10 -57 98 -71 109 -6 4 -126 188 -204 310 -46 74 -85 139 -155 265 -39
72 -78 141 -86 155 -17 29 -87 173 -137 280 -127 271 -220 516 -316 830 -18
58 -38 121 -44 140 -6 19 -11 42 -12 50 -1 8 -17 70 -34 137 -18 68 -29 127
-26 133 3 5 1 10 -5 10 -6 0 -10 6 -9 13 2 6 -3 37 -9 67 -7 30 -14 65 -17 78
-2 13 -6 31 -9 40 -3 9 -7 37 -10 62 -3 25 -8 56 -11 70 -3 14 -7 39 -10 55
-4 28 -6 43 -21 140 -9 59 -11 394 -3 440 4 22 15 83 24 135 20 121 23 135 25
135 1 0 3 7 5 15 11 55 71 246 96 305 7 17 13 32 14 35 6 17 24 56 63 140 25
52 46 97 46 100 1 3 4 10 8 15 3 6 15 26 26 45 71 125 95 164 147 240 32 47
77 108 99 137 23 28 48 60 56 71 95 124 293 321 420 418 36 27 71 55 78 61 19
18 161 111 219 144 117 66 256 128 388 174 85 30 155 52 155 49 0 -2 8 0 18 5
11 6 30 12 43 15 13 3 50 12 81 20 32 9 71 18 88 21 17 3 61 12 98 20 38 8 94
17 126 20 31 4 67 8 79 11 12 2 51 6 87 10 36 3 66 7 67 8 6 5 412 -2 443 -8z"/>
</g>
</svg>
