<?xml version="1.0" encoding="utf-8"?>
<!-- Generator: Adobe Illustrator 23.0.1, SVG Export Plug-In . SVG Version: 6.00 Build 0)  -->
<svg version="1.1" id="Layer_1" xmlns="http://www.w3.org/2000/svg" xmlns:xlink="http://www.w3.org/1999/xlink" x="0px" y="0px"
	 viewBox="0 0 373.2 136.1" style="enable-background:new 0 0 373.2 136.1;" xml:space="preserve">
<style type="text/css">
	.st0{fill:#FFFFFF;stroke:#000000;stroke-width:0.5;stroke-miterlimit:10;}
</style>
<g>
	
		<image style="overflow:visible;opacity:0.75;" width="1555" height="567" xlink:href="7211DA05A5E7237B.png"  transform="matrix(0.24 0 0 0.24 0 0)">
	</image>
	<g>
		<path class="st0" d="M12,23.1c0-0.4-0.1-0.7-0.2-1c-0.1-0.3-0.2-0.6-0.4-1c-0.2-0.6-0.4-1.2-0.6-1.8c-0.2-0.7-0.3-1.4-0.3-2.3
			c0.1-0.5,0.2-0.8,0.4-1s0.3-0.4,0.4-0.5l0.3-1.3h1.1c0.4,0,0.8,0.1,1.2,0.1c0.4,0,0.8,0,1.2,0c1.8,0,3.6-0.1,5.5-0.2
			c1.9-0.1,3.8-0.3,5.8-0.5c2.2-0.3,4.5-0.5,7-0.6c0.2-0.5,0.4-0.8,0.5-1s0.2-0.3,0.2-0.5l0.8-0.4c1.1,0,1.8,0.1,2.2,0.4
			c0.4,0.3,0.7,0.6,1,0.9c1.2-0.1,2.5-0.2,3.7-0.4c1.3-0.2,2.6-0.3,3.9-0.5c1.9-0.2,3.8-0.5,5.7-0.7c1.9-0.2,3.8-0.4,5.6-0.4
			c0.8,0,1.5,0,2.2,0.1c0.7,0,1.4,0.1,2,0.2l0.8,0.6c0.2,0.3,0.4,0.6,0.7,0.9s0.6,0.6,1,0.8c0.7,0.6,1.4,1.3,2.1,2.1
			c0.7,0.8,0.9,2.1,0.7,3.7l-0.4,0.7c-0.2,0.2-0.4,0.4-0.7,0.6L64.7,21h-0.8c-0.5,0-0.8,0-1.1,0.1c-0.2,0.1-0.5,0.2-0.8,0.3
			c-0.2,0.1-0.4,0.2-0.6,0.2c-0.2,0.1-0.5,0.2-0.8,0.2c-0.5,0-0.9-0.1-1.2-0.1s-0.6,0-1,0c-1.4,0-2.9,0.1-4.6,0.3
			c-1.6,0.2-3.2,0.4-4.8,0.6c-1.1,0.1-2.2,0.3-3.2,0.4c-1,0.1-2,0.2-2.8,0.3c-0.5,1.2-0.9,2.3-1.3,3.2c-0.4,0.9-0.8,1.9-1.2,2.8
			c-0.4,0.9-0.8,1.9-1.2,2.8c-0.4,1-0.7,2-1.1,3.2c-0.6,0.8-1,1.7-1.4,2.4c-0.4,0.8-0.7,1.7-0.9,2.6c-0.7,0.8-1.2,1.7-1.5,2.6
			c-0.3,0.9-0.6,1.7-0.8,2.4l-0.3,1.1c-0.3,0.3-0.5,0.6-0.6,0.8c-0.1,0.2-0.2,0.4-0.4,0.6c-0.1,0.6-0.3,1.2-0.6,1.8
			c-0.1,0.2-0.2,0.5-0.3,0.7c-0.1,0.3-0.1,0.5-0.1,0.6c-0.1,0.5-0.2,0.9-0.4,1.2c0,0.3,0,0.6-0.1,0.8c0,0.3-0.1,0.6-0.1,0.8
			c-0.1,0.3-0.2,0.6-0.2,0.9c0,0.3,0,0.5,0.1,0.7c0.1,0.2,0.3,0.4,0.4,0.6c0.1,0.2,0.3,0.4,0.4,0.7c0.1,0.1,0.2,0.2,0.4,0.2
			c0.1,0,0.3,0.1,0.4,0.2c0.4,0.3,0.7,0.5,1.1,0.6l0.7,0.8c0.3,1.7,0,3-0.8,3.9c-0.8,1.1-2.3,1.6-4.2,1.6l-1-0.1
			c-0.3-0.3-0.5-0.5-0.6-0.6c-0.4-0.2-0.8-0.3-1.1-0.5c-0.3-0.1-0.5-0.3-0.8-0.7c-0.1-0.1-0.2-0.2-0.4-0.2c-0.1,0-0.3-0.1-0.4-0.2
			c-0.5-0.1-0.8-0.3-1.1-0.5L23,61.2c0-0.5,0.1-0.8,0.1-1c-0.4-0.5-0.7-1.1-0.9-1.7c-0.2-0.6-0.4-1.2-0.5-1.9
			c-0.1-0.5-0.3-1-0.4-1.4c-0.1-0.4-0.3-0.8-0.5-1.1c-0.1-3.3,0.2-6,0.9-8.3c0.7-2.2,1.5-4.4,2.3-6.5c0.5-1.1,0.9-2.3,1.3-3.4
			c0.4-1.2,0.8-2.4,1.1-3.6l0.8-0.8c0.3-0.3,0.5-0.4,0.6-0.5c0-0.6,0.1-1.2,0.4-1.8c0.2-0.6,0.5-1.2,0.8-1.8
			c0.2-0.4,0.4-0.7,0.5-1.1c0.2-0.4,0.3-0.7,0.3-1c-0.3,0-0.6,0-0.9,0c-0.3,0-0.5,0.1-0.8,0.1c-0.6,0.1-1.2,0.2-1.8,0.2
			c-0.4,0-0.7,0-0.9-0.1c-0.4,0.2-0.7,0.3-1.1,0.3c-0.3,0-0.7,0-1,0h-0.8h-0.8c-0.6,0-1,0.1-1.3,0.2c-0.7,0-1.1,0-1.3,0
			c-0.2,0-0.4,0-0.6,0h-0.8h-0.8c-0.4,0-0.8,0-1.3-0.1c-0.5-0.1-1-0.2-1.5-0.5L13.6,25c-0.3-0.5-0.5-0.8-0.8-0.8L12,23.9V23.1z"/>
		<path class="st0" d="M90.2,56c0.1,1.2,0,2.2-0.4,3c-0.4,0.8-0.9,1.5-1.5,2c-0.7,0.6-1.4,1-2.2,1.3c-0.8,0.3-1.7,0.6-2.5,0.9
			c-0.4-0.2-0.7-0.5-1.1-0.7s-0.8-0.5-1.2-0.6c-0.6-1.1-1.2-2.1-1.8-3c-0.6-0.9-0.8-1.9-0.8-3c0,0,0-0.3,0.1-0.8
			c0.1-0.5,0.2-1,0.3-1.5c0.1-0.6,0.2-1.1,0.3-1.6s0.1-0.8,0.1-0.8c-1.1,0.1-2.2,0.3-3.4,0.7c-1.2,0.4-2.3,0.8-3.4,1.3
			c-1.1,0.5-2.1,1-3.1,1.5c-1,0.5-1.7,1-2.4,1.3c0,0.1-0.1,0.5-0.3,1c-0.2,0.5-0.4,1.1-0.7,1.7c-0.3,0.6-0.6,1.1-0.9,1.6
			c-0.3,0.5-0.7,0.7-1,0.7c0,0.1,0.1,0.3,0.2,0.4c0.1,0.1,0.1,0.3,0,0.6c-0.7,0.2-1.2,0.4-1.8,0.7c-0.5,0.3-1.1,0.6-1.6,0.8
			S60,64,59.3,64c-0.7,0-1.4-0.2-2.3-0.7c0-0.3-0.1-0.5-0.4-0.7c-0.2-0.2-0.5-0.4-0.7-0.6c-0.3-0.2-0.5-0.3-0.7-0.4
			c-0.2-0.1-0.3-0.2-0.3-0.3c-0.2,0-0.3-0.1-0.3-0.5c0-0.4,0.2-0.5,0.6-0.3c-0.5-0.7-0.8-1.2-0.9-1.7s-0.4-1.1-0.8-1.9
			c0.1-0.1,0.2-0.3,0.2-0.5c0.1-0.2,0.1-0.4,0.2-0.6c0-0.2,0.1-0.3,0.2-0.4c0.1-0.1,0.2-0.1,0.4,0.1c-0.1-0.4-0.1-0.8,0-1.1
			c0.1-0.3,0.2-0.5,0.3-0.8c0.1-0.2,0.2-0.5,0.2-0.7c0-0.2,0-0.5-0.2-0.8c0.7-1,1.2-2.1,1.5-3.3c0.2-1.2,0.4-2.3,0.4-3.3
			c0.3-0.3,0.6-0.8,0.9-1.4c0.3-0.6,0.5-1.2,0.6-1.9s0.2-1.2,0.2-1.8c0-0.6-0.1-1.1-0.2-1.4c0-0.2,0.3-0.3,0.8-0.2
			c0.3-1.5,0.5-3.3,0.6-5.2c0.1-1.9,0.3-3.8,0.6-5.6s0.7-3.3,1.4-4.6c0.7-1.3,1.7-2.2,3.2-2.6c0.3,1,0.6,1.9,1.1,2.6
			c0.4,0.8,0.9,1.5,1.5,2.1c0.5,0.7,1.1,1.4,1.6,2.1c0.5,0.7,1,1.5,1.5,2.4c0,0.9-0.1,1.9-0.3,3.1c-0.1,1.2-0.3,2.4-0.5,3.6
			c-0.2,1.2-0.4,2.4-0.6,3.5s-0.4,2.1-0.6,2.9c0,0.2,0.2,0.4,0.4,0.4c0.2,0,0.2,0.3,0.1,0.6c1.1-0.3,2.3-0.5,3.5-0.8
			c1.2-0.2,2.4-0.5,3.7-0.8c1.2-0.3,2.4-0.6,3.6-0.9c1.1-0.4,2.2-0.8,3.2-1.3c0.2-1.8,0.5-3.7,0.9-5.5c0.4-1.8,0.4-3.7,0.1-5.6
			c0.2-0.2,0.4-0.4,0.6-0.7s0.4-0.5,0.7-0.6C84.8,27,84.7,26,84.7,25c0-1,0.2-1.9,0.5-2.8c0.3-0.9,0.7-1.7,1.3-2.3
			c0.6-0.6,1.3-1,2.1-1.2c0.5,0.8,1,1.6,1.3,2.4c0.4,0.9,0.8,1.7,1.2,2.6c0.4,0.9,0.8,1.7,1.3,2.5c0.4,0.8,1,1.4,1.7,2
			c0.1,1.4,0.2,2.8,0.3,4.2c0.1,1.5,0.1,2.9,0.2,4.4c-0.4,1.8-0.8,3.5-1.2,5.2c-0.4,1.7-0.8,3.4-0.9,5.3c-0.3,0.4-0.6,0.8-0.8,1.3
			c-0.2,0.5-0.4,0.9-0.6,1.4c-0.2,0.5-0.4,1-0.6,1.4c-0.2,0.4-0.5,0.8-0.8,1.2c0.2,0.6,0.2,1.1,0.1,1.6C89.7,54.7,89.8,55.3,90.2,56
			z"/>
		<path class="st0" d="M135.3,23.2c0,0.3,0.1,0.6,0,0.7c0,0.2,0,0.3-0.1,0.5c0,0.1,0,0.3,0,0.5c0,0.2,0,0.4,0.1,0.7
			c-1,1.6-2.1,2.7-3.4,3.3c-1.3,0.6-2.7,1-4.2,1.3c-1.5,0.3-3,0.5-4.6,0.8c-1.6,0.3-3.1,0.9-4.7,1.8c-0.6-0.2-1.2-0.2-1.7,0
			c-0.5,0.2-1.2,0.3-2.1,0.2c-0.3,0.3-0.6,0.5-1.1,0.6c-0.4,0.1-0.8,0.2-1.3,0.4c0.2,0.4,0.3,0.9,0.2,1.3c0,0.4,0,0.8,0.2,1.1
			c1.6,0.1,3.5,0.1,5.4-0.1c2-0.2,3.9-0.3,5.9-0.4c0,0.2,0,0.4-0.1,0.5c-0.1,0.1-0.1,0.2-0.1,0.4c0.3,0.2,0.7,0.5,1,0.9
			c0.3,0.4,0.7,0.7,1,1c0.3,0.3,0.7,0.6,1,0.8s0.8,0.3,1.2,0.2c0.2,0.4,0.3,0.8,0.4,1.2c0.1,0.4,0,0.9-0.2,1.4
			c-0.8,0.5-1.5,1-2.2,1.6c-0.8,0.5-1.5,1-2.4,1.4c-0.8,0.4-1.7,0.8-2.6,1c-0.9,0.3-1.9,0.4-3.1,0.3c-0.2,0-0.4,0-0.5,0
			c-0.1,0-0.3-0.1-0.5-0.2c-0.4,0.2-0.9,0.3-1.6,0.2c-0.7-0.1-1.2,0-1.6,0.2c-0.5-0.2-1.1-0.3-1.9-0.3c-0.7,0-1.4-0.1-1.9-0.2
			c-0.8,1-1.4,2-2,3.2c-0.6,1.1-1.1,2.3-1.6,3.6c1.6,0.2,2.9,0.3,4,0.3c1.1,0,2-0.1,3-0.2c0.9-0.1,1.9-0.2,2.9-0.4
			c1-0.1,2.2-0.2,3.7-0.1c0.9-0.5,2-0.9,3.3-1c1.3-0.2,2.5-0.4,3.6-0.8c0.4,0.1,0.7,0.4,1,0.7c0.3,0.4,0.6,0.7,0.8,1
			c0.3,0.3,0.5,0.6,0.8,0.8c0.3,0.2,0.6,0.3,1.1,0.3c0.2,0.2,0.3,0.4,0.4,0.7c0.1,0.3,0.1,0.5,0.2,0.7c0,0.2,0.1,0.4,0.2,0.6
			c0.1,0.2,0.3,0.2,0.6,0.2c-0.7,1.5-1.5,2.7-2.4,3.6c-0.9,0.8-2,1.4-3.1,1.9c-1.2,0.4-2.5,0.8-3.9,1c-1.4,0.2-3,0.5-4.7,0.8
			c-0.4,0.1-0.8,0.1-1.1,0c-0.3-0.1-0.6-0.2-1-0.2c-1.1,0.2-2.4,0.4-3.9,0.6c-1.5,0.2-3,0.3-4.6,0.2c-1.5,0-3-0.2-4.4-0.6
			s-2.6-1-3.4-1.9c-0.4-0.3-0.6-0.7-0.7-1.2c-0.1-0.4-0.4-0.8-0.9-1c0-0.6-0.1-1.3-0.3-2c-0.1-0.7-0.3-1.5-0.4-2.4
			c-0.1-0.8-0.2-1.6-0.3-2.4c-0.1-0.8,0-1.5,0.1-2.2c0.1-0.7,0.4-1.3,0.9-1.9c0.4-0.6,0.6-1.2,0.5-1.8c0.2,0,0.4-0.2,0.4-0.4
			c0-0.2,0.2-0.3,0.6-0.2c0.3-0.8,0.6-1.6,0.9-2.4c0.3-0.7,0.7-1.5,1-2.2s0.7-1.4,1.1-2.1c0.4-0.7,0.7-1.5,1-2.4
			c-0.7-0.6-1.1-1.3-1.4-2c-0.3-0.7-0.5-1.5-0.7-2.2c-0.1-0.7-0.3-1.5-0.4-2.2c-0.1-0.8-0.3-1.6-0.5-2.4c0.5-0.7,1-1.3,1.7-1.7
			c0.7-0.4,1.4-0.8,2.2-1.1c0.8-0.3,1.7-0.5,2.6-0.7c0.9-0.2,1.9-0.4,3-0.6c1.9-0.6,3.6-1.1,5-1.4c1.5-0.3,2.9-0.6,4.4-0.8
			c1.4-0.2,2.9-0.4,4.5-0.6c1.5-0.2,3.3-0.5,5.3-0.8c0.4,0.4,0.8,0.6,1.2,0.6c0.2-0.4,0.4-0.6,0.7-0.4c0.3,0.2,0.4,0,0.3-0.4
			c0.5,0.8,1.1,1.5,1.8,2C133.6,22.4,134.4,22.8,135.3,23.2z"/>
		<path class="st0" d="M167.2,63.6c-1.4-0.3-2.4-0.9-3.1-1.7c-0.7-0.8-1.3-1.7-1.6-2.7s-0.6-2.2-0.7-3.5c-0.1-1.3-0.2-2.6-0.4-3.9
			c0.2-0.6,0.4-1.1,0.7-1.5c0.3-0.4,0.4-1,0.4-1.8c0.5-1.5,1-3,1.4-4.4s0.7-2.9,0.8-4.4c0.3-0.4,0.6-0.7,0.8-0.8
			c0.4-2.7,0.4-5.4,0.1-8.2s-0.8-5.4-1.4-7.8c0-0.5,0.1-0.9,0.2-1.2c0.1-0.3,0.1-0.5,0-0.7c-0.1-0.4,0-0.6,0.4-0.6
			c0.4,0,0.7,0,1.1,0c0-0.8-0.2-1.7-0.5-2.5c-0.3-0.8-0.6-1.8-0.9-2.8c0.4-0.8,0.6-1.7,0.8-2.5c0.1-0.8,0.4-1.5,0.8-2.2
			c1.5,0.5,3,1,4.4,1.6c1.5,0.6,2.9,1.2,4.3,1.8c1.4,0.6,2.8,1.1,4.1,1.7c1.4,0.5,2.7,1,4,1.3c2,1.5,4.1,2.9,6.2,4.3
			c2.1,1.4,4.1,3,5.8,4.7c1.8,1.7,3.2,3.7,4.4,5.9c1.2,2.2,1.9,4.8,2,7.8c-0.1,0.3-0.2,0.5-0.2,0.7c0,0.2-0.1,0.4-0.1,0.6
			c0,0.2-0.1,0.4-0.1,0.6c0,0.2,0,0.6,0,1c-1.7,3-3.8,5.4-6.4,7.5c-2.6,2-5.4,3.8-8.4,5.3c-3,1.5-6.2,3-9.5,4.3
			C173.5,60.7,170.3,62.1,167.2,63.6z M174.1,23.7c-0.4,0-0.7,0.1-0.9,0.3c0.6,2.1,1,4.1,1.3,6c0.3,1.9,0.4,3.8,0.5,5.6
			c0,1.9-0.1,3.8-0.3,5.8c-0.2,2-0.6,4.1-1,6.4c0.6,0,1.1-0.2,1.6-0.4c0.5-0.2,0.9-0.4,1.4-0.6c0.5-0.2,1-0.4,1.5-0.6
			c0.5-0.2,1.2-0.3,1.9-0.4c0.2-0.4,0.4-0.7,0.7-0.9c0.3-0.2,0.6-0.4,0.8-0.7c1.2-0.5,2.3-1,3.5-1.5c1.2-0.5,2.2-1.1,3.2-1.8
			c1-0.7,1.9-1.4,2.7-2.2c0.8-0.8,1.5-1.9,2-3c-0.4-0.7-0.8-1.3-1.4-1.8c-0.5-0.5-1.1-1-1.7-1.5c-0.6-0.5-1.1-1-1.7-1.5
			c-0.5-0.5-1-1.2-1.3-1.9c-0.8-0.1-1.4-0.3-2-0.6c-0.6-0.3-1.1-0.6-1.6-0.9c-0.5-0.3-1.1-0.6-1.7-0.9c-0.6-0.3-1.3-0.4-2.1-0.5
			c-1.2-0.7-2.3-1.1-3.3-1.4C175.3,24.5,174.6,24.2,174.1,23.7z"/>
		<path class="st0" d="M241.2,23.2c0,0.3,0.1,0.6,0,0.7c0,0.2,0,0.3-0.1,0.5c0,0.1,0,0.3,0,0.5c0,0.2,0,0.4,0.1,0.7
			c-1,1.6-2.1,2.7-3.4,3.3c-1.3,0.6-2.7,1-4.2,1.3c-1.5,0.3-3,0.5-4.6,0.8c-1.6,0.3-3.1,0.9-4.7,1.8c-0.6-0.2-1.2-0.2-1.7,0
			c-0.5,0.2-1.2,0.3-2.1,0.2c-0.3,0.3-0.6,0.5-1.1,0.6c-0.4,0.1-0.8,0.2-1.3,0.4c0.2,0.4,0.3,0.9,0.2,1.3c0,0.4,0,0.8,0.2,1.1
			c1.6,0.1,3.5,0.1,5.4-0.1c2-0.2,3.9-0.3,5.9-0.4c0,0.2,0,0.4-0.1,0.5c-0.1,0.1-0.1,0.2-0.1,0.4c0.3,0.2,0.7,0.5,1,0.9
			c0.3,0.4,0.7,0.7,1,1c0.3,0.3,0.7,0.6,1,0.8s0.8,0.3,1.2,0.2c0.2,0.4,0.3,0.8,0.4,1.2c0.1,0.4,0,0.9-0.2,1.4
			c-0.8,0.5-1.5,1-2.2,1.6c-0.8,0.5-1.5,1-2.4,1.4c-0.8,0.4-1.7,0.8-2.6,1c-0.9,0.3-1.9,0.4-3.1,0.3c-0.2,0-0.4,0-0.5,0
			c-0.1,0-0.3-0.1-0.5-0.2c-0.4,0.2-0.9,0.3-1.6,0.2c-0.7-0.1-1.2,0-1.6,0.2c-0.5-0.2-1.1-0.3-1.9-0.3c-0.7,0-1.4-0.1-1.9-0.2
			c-0.8,1-1.4,2-2,3.2c-0.6,1.1-1.1,2.3-1.6,3.6c1.6,0.2,2.9,0.3,4,0.3c1.1,0,2-0.1,3-0.2c0.9-0.1,1.9-0.2,2.9-0.4
			c1-0.1,2.2-0.2,3.7-0.1c0.9-0.5,2-0.9,3.3-1c1.3-0.2,2.5-0.4,3.6-0.8c0.4,0.1,0.7,0.4,1,0.7s0.6,0.7,0.8,1
			c0.3,0.3,0.5,0.6,0.8,0.8c0.3,0.2,0.6,0.3,1.1,0.3c0.2,0.2,0.3,0.4,0.4,0.7c0.1,0.3,0.1,0.5,0.2,0.7c0,0.2,0.1,0.4,0.2,0.6
			c0.1,0.2,0.3,0.2,0.6,0.2c-0.7,1.5-1.5,2.7-2.4,3.6c-0.9,0.8-2,1.4-3.1,1.9c-1.2,0.4-2.5,0.8-3.9,1c-1.4,0.2-3,0.5-4.7,0.8
			c-0.4,0.1-0.8,0.1-1.1,0c-0.3-0.1-0.6-0.2-1-0.2c-1.1,0.2-2.4,0.4-3.9,0.6c-1.5,0.2-3,0.3-4.6,0.2c-1.5,0-3-0.2-4.4-0.6
			s-2.6-1-3.4-1.9c-0.4-0.3-0.6-0.7-0.7-1.2c-0.1-0.4-0.4-0.8-0.9-1c0-0.6-0.1-1.3-0.3-2c-0.1-0.7-0.3-1.5-0.4-2.4
			c-0.1-0.8-0.2-1.6-0.3-2.4c-0.1-0.8,0-1.5,0.1-2.2c0.1-0.7,0.4-1.3,0.9-1.9c0.4-0.6,0.6-1.2,0.5-1.8c0.2,0,0.4-0.2,0.4-0.4
			c0-0.2,0.2-0.3,0.6-0.2c0.3-0.8,0.6-1.6,0.9-2.4c0.3-0.7,0.7-1.5,1-2.2s0.7-1.4,1.1-2.1c0.4-0.7,0.7-1.5,1-2.4
			c-0.7-0.6-1.1-1.3-1.4-2c-0.3-0.7-0.5-1.5-0.7-2.2c-0.1-0.7-0.3-1.5-0.4-2.2c-0.1-0.8-0.3-1.6-0.5-2.4c0.5-0.7,1-1.3,1.7-1.7
			c0.7-0.4,1.4-0.8,2.2-1.1c0.8-0.3,1.7-0.5,2.6-0.7c0.9-0.2,1.9-0.4,3-0.6c1.9-0.6,3.6-1.1,5-1.4c1.5-0.3,2.9-0.6,4.4-0.8
			c1.4-0.2,2.9-0.4,4.5-0.6c1.5-0.2,3.3-0.5,5.3-0.8c0.4,0.4,0.8,0.6,1.2,0.6c0.2-0.4,0.4-0.6,0.7-0.4c0.3,0.2,0.4,0,0.3-0.4
			c0.5,0.8,1.1,1.5,1.8,2C239.5,22.4,240.3,22.8,241.2,23.2z"/>
		<path class="st0" d="M276.7,56.9c-0.3,0.8-0.7,1.6-1.2,2.4c-0.5,0.8-1.2,1.5-1.9,2.2c-0.7,0.6-1.5,1.2-2.4,1.6
			c-0.9,0.4-1.8,0.7-2.8,0.7c-0.6-0.1-1-0.3-1.2-0.5c-0.2-0.2-0.4-0.3-0.7-0.5c-0.1-0.1-0.3-0.2-0.4-0.2c-0.1-0.1-0.2-0.1-0.3-0.2
			l-0.8-0.4l0.3-0.9c0.1-0.4,0.1-0.7-0.1-0.9s-0.4-0.5-0.8-0.9c-0.1-0.1-0.3-0.3-0.4-0.4s-0.3-0.3-0.4-0.4l-1.2-1.3l1.9-0.5
			c1.2-0.3,2-0.7,2.4-1.3c0.4-0.5,0.6-1.4,0.5-2.6c-0.9-0.2-1.7-0.2-2.4-0.1s-1.3,0.3-1.9,0.5c-0.8,0.2-1.7,0.4-2.6,0.6
			c-0.9,0.2-1.8,0.2-2.8,0.2c-0.4,0-0.7,0-1.1,0c-0.3,0-0.7-0.1-1.1-0.1l-0.7-0.1c-0.1-0.5-0.2-0.8-0.3-0.9
			c-0.1-0.1-0.2-0.2-0.3-0.2c-0.2-0.2-0.5-0.6-0.7-0.9c-0.3-0.4-0.3-0.9-0.2-1.5c-0.2-0.4-0.4-0.8-0.4-1.3c-0.3,0.6-0.5,1.1-0.6,1.8
			l-0.3,0.7l-0.7,0.1c-0.1,0-0.2,0.2-0.2,0.3c0,0.2-0.1,0.3-0.1,0.4l-0.4,1.2c-0.1,0.1-0.2,0.2-0.3,0.2c-0.1,0.1-0.2,0.2-0.3,0.2
			c-0.1,0.4-0.2,0.8-0.4,1.3s-0.3,0.8-0.4,1.2c-0.2,0.6-0.4,1.2-0.6,1.8c-0.2,0.6-0.2,1.2-0.2,1.7l-0.3,0.8
			c-0.2,0.3-0.5,0.5-0.8,0.7c-0.3,0.2-0.6,0.3-0.8,0.5c-0.1,0.1-0.2,0.2-0.4,0.2c-0.2,0.1-0.3,0.1-0.4,0.2l-0.2,0.8l-0.8,0.1
			c-0.5,0.1-0.9,0.2-1.1,0.2c-0.2,0-0.5,0.1-0.7,0.1l-0.7-0.1c-0.5-0.4-0.9-0.8-1.2-1c-0.3-0.3-0.6-0.5-1-0.7
			c-0.4-0.6-0.7-1-0.7-1.3c0-0.3-0.1-0.5-0.1-0.8c-0.1-0.3-0.2-0.5-0.2-0.7c0-0.2-0.1-0.3-0.2-0.4l-0.9-0.8l0.8-0.6l0.1-1.2
			c0.9-2.4,1.9-4.7,3-6.9c1.1-2.2,2.1-4.5,3.3-6.8c0.4-0.7,0.7-1.5,1.1-2.2c0.4-0.7,0.7-1.5,1.1-2.2c0-0.1-0.1-0.3-0.1-0.5
			c0-0.2,0-0.4,0.1-0.6c0.5-0.8,0.9-1.5,1.3-2.1c0.3-0.6,0.7-1.3,1-1.9c0.4-0.8,0.8-1.6,1.2-2.3c0.4-0.7,0.9-1.5,1.5-2.3l1.1-0.5
			c0.1,0,0.3-0.1,0.5-0.2c0.2-0.1,0.4-0.1,0.6-0.1l1.1,0.1c1.3-0.6,2.5-1.5,3.4-2.6c1-1.1,2-2.4,3-4l0.7-1l0.9,0.6
			c0.2,0.1,0.6,0.3,1,0.4c0.4,0.1,0.9,0.2,1.3,0.4c0.8,0.2,1.6,0.4,2.4,0.6c0.7,0.2,1.4,0.6,1.8,1.1c0.3,0.8,0.4,1.3,0.5,1.7
			c0,0.4,0.1,0.8,0.2,1.1c0.1,0.8,0.3,1.6,0.4,2.4c0.1,0.8,0.2,1.7,0.2,2.7c0.2,0.8,0.4,1.6,0.6,2.4c0.2,0.8,0.3,1.6,0.5,2.4
			c0.2,1.1,0.5,2.2,0.7,3.3c0.2,1.1,0.5,2.1,0.9,3c0.4,0,0.6,0,0.7,0.1c0.2-0.1,0.5-0.2,0.7-0.2c0.3,0,0.6-0.1,0.9-0.1l0.8-0.1
			l0.3,0.7c0,0.2,0.3,0.5,0.7,0.7c0.6,0,1.1,0.2,1.3,0.4s0.5,0.4,0.8,0.7c0.2,0.2,0.4,0.3,0.6,0.4l1.1,0.4l-0.6,1.1
			c-0.5,0.8-1.1,1.7-2,2.4c-0.9,0.8-1.8,1.4-2.9,1.9c0,0.3,0.1,0.6,0.1,0.8c0,0.3,0.1,0.5,0.2,0.8c0.1,0.8,0.3,1.6,0.4,2.5
			c0.1,0.8,0.1,1.7,0,2.6L276.7,56.9z M256.4,44.7c1.4-0.1,2.7-0.2,3.8-0.3c1.1-0.1,2.4-0.3,3.8-0.6c-0.3-1.4-0.7-2.9-1.1-4.4
			c-0.4-1.5-0.8-3-1.2-4.5l-0.4,0.7c-0.9,1-1.8,2.1-2.7,3.3c-0.9,1.2-1.6,2.4-2.2,3.4c-0.3,0.4-0.6,0.8-0.8,1.3s-0.5,0.8-0.8,1.3
			c0.3,0,0.6-0.1,0.8-0.1C255.9,44.8,256.2,44.8,256.4,44.7z"/>
		<path class="st0" d="M317.8,29c-1.2,0-2.4,0.1-3.8,0.2c-1.4,0.2-2.7,0.3-4,0.5c-0.9,0.1-1.8,0.3-2.7,0.4c-0.9,0.1-1.7,0.2-2.4,0.2
			c-0.3,1-0.7,1.9-1,2.7c-0.3,0.8-0.7,1.6-1.1,2.3c-0.4,0.8-0.7,1.6-1,2.4c-0.3,0.8-0.6,1.7-0.9,2.6c-0.5,0.8-0.9,1.4-1.2,2.1
			c-0.3,0.6-0.6,1.3-0.7,2.1c-0.6,0.7-1,1.4-1.3,2.2s-0.5,1.4-0.6,2l-0.3,0.8c-0.3,0.3-0.4,0.5-0.5,0.7c0,0.2-0.2,0.3-0.4,0.5
			c0,0.5-0.2,1-0.5,1.5c-0.1,0.2-0.2,0.5-0.2,0.7c0,0.2-0.1,0.4-0.1,0.5c0,0.5-0.1,0.8-0.4,0.9c0,0.2,0,0.5,0,0.7
			c0,0.3-0.1,0.5-0.1,0.7c-0.1,0.6-0.2,1-0.1,1.3c0.1,0.2,0.3,0.4,0.4,0.5c0.1,0.1,0.2,0.3,0.2,0.6c0.3,0.2,0.5,0.3,0.6,0.4
			c0.2,0.1,0.5,0.3,0.8,0.5l0.6,0.7c0.2,1.4,0,2.4-0.6,3.2c-0.7,0.9-1.9,1.3-3.6,1.3h-0.8c-0.2-0.2-0.4-0.4-0.4-0.6
			c-0.4-0.1-0.7-0.3-0.9-0.4c-0.2-0.1-0.4-0.3-0.6-0.6c-0.6-0.3-1.1-0.5-1.5-0.7l-0.6-0.4c0-0.5,0-0.8,0-0.8
			c-0.3-0.4-0.6-0.9-0.7-1.4c-0.2-0.5-0.3-1-0.4-1.5c-0.1-0.4-0.2-0.8-0.3-1.2c-0.1-0.4-0.3-0.7-0.5-1c-0.1-2.7,0.2-5,0.8-6.9
			c0.6-1.9,1.2-3.7,1.9-5.4c0.4-0.9,0.7-1.9,1.1-2.8c0.4-1,0.7-2,1-3l0.6-0.7c0.3-0.7,0.6-1.4,0.8-1.9s0.4-1,0.7-1.5
			c0.1-0.3,0.3-0.6,0.4-0.9c0.1-0.3,0.2-0.6,0.3-0.8c-0.3,0-0.5,0-0.8,0c-0.2,0-0.5,0.1-0.7,0.1c-0.3,0-0.5,0.1-0.8,0.1
			c-0.2,0-0.5,0-0.7,0c-0.3,0-0.6,0-0.7-0.1c-0.5,0.2-1.1,0.4-1.7,0.4h-0.7c-0.1,0-0.3,0-0.4,0c-0.1,0-0.2,0-0.3,0
			c-0.5,0-0.8,0.1-1.1,0.2c-0.6,0-1.1,0-1.6,0h-0.7c-0.1,0-0.2,0-0.4,0c-0.1,0-0.3,0-0.4,0c-0.3,0-0.7,0-1.1-0.1
			c-0.4-0.1-0.8-0.2-1.2-0.5c-0.6-0.7-0.9-1.1-1.1-1.2l-0.6-0.8c0-0.3-0.1-0.6-0.2-0.8c-0.1-0.3-0.2-0.6-0.3-0.9
			c-0.2-0.5-0.4-1-0.5-1.5c-0.2-0.5-0.2-1.2-0.2-1.9c0-0.4,0.1-0.7,0.3-0.8c0.1-0.2,0.3-0.4,0.4-0.5l0.2-1.1l0.9,0.1h2
			c1.5,0,3-0.1,4.6-0.2c1.5-0.1,3.1-0.2,4.8-0.4c0.9-0.1,1.9-0.2,2.8-0.3c1-0.1,2-0.2,3-0.3c0.2-0.4,0.4-0.8,0.6-1.2L298,20
			c0.8,0,1.4,0.1,1.8,0.3c0.4,0.3,0.6,0.5,0.9,0.7c1-0.1,2.1-0.2,3.1-0.3c1.1-0.1,2.1-0.3,3.2-0.5c1.6-0.2,3.2-0.4,4.8-0.6
			c1.6-0.2,3.2-0.3,4.7-0.3c0.7,0,1.3,0,1.9,0.1c0.6,0,1.2,0.1,1.7,0.2l0.7,0.5c0.1,0.3,0.3,0.5,0.6,0.8c0.3,0.2,0.5,0.5,0.8,0.7
			c0.6,0.5,1.1,1.1,1.7,1.8s0.8,1.7,0.6,3.1c-0.4,0.6-0.7,0.9-0.8,1l-0.6,0.8l-0.7-0.1c-0.3,0-0.5,0-0.8,0.1
			c-0.2,0.1-0.5,0.2-0.7,0.2c-0.2,0.1-0.4,0.2-0.6,0.2c-0.2,0.1-0.4,0.1-0.6,0.2c-0.4,0-0.8,0-1,0C318.3,29,318.1,29,317.8,29z"/>
		<path class="st0" d="M348.3,56c0.1,1.2,0,2.2-0.4,3c-0.4,0.8-0.9,1.5-1.5,2c-0.7,0.6-1.4,1-2.2,1.3c-0.8,0.3-1.7,0.6-2.5,0.9
			c-0.4-0.2-0.7-0.5-1.1-0.7s-0.8-0.5-1.2-0.6c-0.6-1.1-1.2-2.1-1.8-3c-0.6-0.9-0.8-1.9-0.8-3c0,0,0-0.3,0.1-0.8
			c0.1-0.5,0.2-1,0.3-1.5c0.1-0.6,0.2-1.1,0.3-1.6s0.1-0.8,0.1-0.8c-1.1,0.1-2.2,0.3-3.4,0.7c-1.2,0.4-2.3,0.8-3.4,1.3
			c-1.1,0.5-2.1,1-3.1,1.5c-1,0.5-1.7,1-2.4,1.3c0,0.1-0.1,0.5-0.3,1c-0.2,0.5-0.4,1.1-0.7,1.7c-0.3,0.6-0.6,1.1-0.9,1.6
			c-0.3,0.5-0.7,0.7-1,0.7c0,0.1,0.1,0.3,0.2,0.4c0.1,0.1,0.1,0.3,0,0.6c-0.7,0.2-1.2,0.4-1.8,0.7c-0.5,0.3-1.1,0.6-1.6,0.8
			s-1.2,0.3-1.8,0.3c-0.7,0-1.4-0.2-2.3-0.7c0-0.3-0.1-0.5-0.4-0.7c-0.2-0.2-0.5-0.4-0.7-0.6c-0.3-0.2-0.5-0.3-0.7-0.4
			c-0.2-0.1-0.3-0.2-0.3-0.3c-0.2,0-0.3-0.1-0.3-0.5c0-0.4,0.2-0.5,0.6-0.3c-0.5-0.7-0.8-1.2-0.9-1.7s-0.4-1.1-0.8-1.9
			c0.1-0.1,0.2-0.3,0.2-0.5c0.1-0.2,0.1-0.4,0.2-0.6c0-0.2,0.1-0.3,0.2-0.4c0.1-0.1,0.2-0.1,0.4,0.1c-0.1-0.4-0.1-0.8,0-1.1
			c0.1-0.3,0.2-0.5,0.3-0.8c0.1-0.2,0.2-0.5,0.2-0.7c0-0.2,0-0.5-0.2-0.8c0.7-1,1.2-2.1,1.5-3.3c0.2-1.2,0.4-2.3,0.4-3.3
			c0.3-0.3,0.6-0.8,0.9-1.4c0.3-0.6,0.5-1.2,0.6-1.9s0.2-1.2,0.2-1.8c0-0.6-0.1-1.1-0.2-1.4c0-0.2,0.3-0.3,0.8-0.2
			c0.3-1.5,0.5-3.3,0.6-5.2c0.1-1.9,0.3-3.8,0.6-5.6s0.7-3.3,1.4-4.6c0.7-1.3,1.7-2.2,3.2-2.6c0.3,1,0.6,1.9,1.1,2.6
			c0.4,0.8,0.9,1.5,1.5,2.1c0.5,0.7,1.1,1.4,1.6,2.1c0.5,0.7,1,1.5,1.5,2.4c0,0.9-0.1,1.9-0.3,3.1c-0.1,1.2-0.3,2.4-0.5,3.6
			c-0.2,1.2-0.4,2.4-0.6,3.5s-0.4,2.1-0.6,2.9c0,0.2,0.2,0.4,0.4,0.4c0.2,0,0.2,0.3,0.1,0.6c1.1-0.3,2.3-0.5,3.5-0.8
			c1.2-0.2,2.4-0.5,3.7-0.8c1.2-0.3,2.4-0.6,3.6-0.9c1.1-0.4,2.2-0.8,3.2-1.3c0.2-1.8,0.5-3.7,0.9-5.5c0.4-1.8,0.4-3.7,0.1-5.6
			c0.2-0.2,0.4-0.4,0.6-0.7s0.4-0.5,0.7-0.6c-0.2-0.9-0.3-1.8-0.3-2.8c0-1,0.2-1.9,0.5-2.8c0.3-0.9,0.7-1.7,1.3-2.3
			c0.6-0.6,1.3-1,2.1-1.2c0.5,0.8,1,1.6,1.3,2.4c0.4,0.9,0.8,1.7,1.2,2.6c0.4,0.9,0.8,1.7,1.3,2.5c0.4,0.8,1,1.4,1.7,2
			c0.1,1.4,0.2,2.8,0.3,4.2c0.1,1.5,0.1,2.9,0.2,4.4c-0.4,1.8-0.8,3.5-1.2,5.2c-0.4,1.7-0.8,3.4-0.9,5.3c-0.3,0.4-0.6,0.8-0.8,1.3
			c-0.2,0.5-0.4,0.9-0.6,1.4c-0.2,0.5-0.4,1-0.6,1.4c-0.2,0.4-0.5,0.8-0.8,1.2c0.2,0.6,0.2,1.1,0.1,1.6
			C347.8,54.7,347.9,55.3,348.3,56z"/>
		<path class="st0" d="M77.4,93.7c0,0.6,0,1.1,0.1,1.6c0.1,0.5,0.3,1,0.5,1.5s0.4,1,0.6,1.5c0.2,0.5,0.3,1,0.4,1.5
			c0.1,0.7,0.1,1.4,0,2.1c-0.1,0.8-0.3,1.5-0.5,2.2c-0.2,0.7-0.5,1.4-0.9,2c-0.4,0.6-0.8,1-1.3,1.3c-0.7,0.8-1.5,1.5-2.4,2
			c-0.9,0.5-1.8,1-2.6,1.7c-0.5,0.3-1.1,0.6-1.7,0.7s-1.3,0.3-1.9,0.4c-0.5,0.3-1.1,0.6-1.8,0.9c-0.7,0.3-1.4,0.6-2.2,0.8
			c-0.8,0.3-1.5,0.4-2.2,0.6c-0.8,0.1-1.4,0.2-2,0.1c-1.4,0.5-2.8,0.9-4.1,1c-1.3,0.2-2.9,0.1-4.7-0.3c-1.7,0.2-3.2,0.2-4.7-0.2
			c-1.4-0.4-2.7-1-3.8-1.8c-1.1-0.8-2.1-1.8-2.9-3c-0.8-1.1-1.5-2.4-2-3.6c-0.4-2.7-0.3-5.1,0.3-7.3s1.4-4.2,2.4-6
			c1.1-1.9,2.3-3.6,3.6-5.1c1.4-1.6,2.7-3.1,3.9-4.6c0.3,0.1,0.5,0.1,0.7,0c0.2-0.1,0.3-0.3,0.5-0.5s0.3-0.4,0.5-0.6
			c0.2-0.2,0.4-0.3,0.6-0.4c0.3-0.7,0.8-1.2,1.4-1.6s1.1-0.9,1.5-1.5c0.4-0.1,0.8-0.2,1.1-0.4c0.3-0.2,0.6-0.4,0.8-0.6
			c0.3-0.2,0.5-0.5,0.8-0.7s0.6-0.4,1-0.5v-0.8c0.8-0.4,1.5-0.8,1.9-1.3c0.4-0.5,0.9-1.1,1.4-1.8c0.4,0,0.8-0.1,1-0.1
			c0.3,0,0.6,0,1.2-0.1c0.4-0.7,0.7-1.1,1-1.5c0.3-0.3,0.8-0.7,1.4-1.1c0.6,0.3,1.2,0.5,1.9,0.6c0.7,0.1,1.3,0.4,1.8,0.9
			c0,0.5,0.2,0.8,0.4,1.1c0.2,0.3,0.5,0.5,0.8,0.7s0.6,0.4,0.8,0.7c0.3,0.2,0.4,0.6,0.5,1c0.2,0,0.3,0,0.4-0.1
			c0.1-0.1,0.2-0.1,0.4-0.1c0.1,0.7,0.3,1.1,0.5,1.3c0.2,0.2,0.4,0.6,0.6,1.2c-0.2,0.5-0.4,0.9-0.5,1.4c-0.1,0.5-0.4,0.9-0.9,1.1
			c0,0.3,0,0.5,0.3,0.5c0.2,0,0.4,0.2,0.4,0.4c0,0.4,0,0.7-0.2,0.9c1.1,1.8,2.1,3.8,3,5.8C75.3,89.9,76.3,91.9,77.4,93.7z
			 M68.6,100.4c0.2-0.5,0.4-0.9,0.7-1.3c0.3-0.3,0.5-0.8,0.5-1.5c-0.2-0.4-0.4-0.7-0.4-0.9c0-0.2-0.1-0.6-0.1-1
			c-1-1.5-1.9-3-2.7-4.7c-0.8-1.7-1.6-3.2-2.5-4.7c-0.1,0.2-0.3,0.4-0.5,0.6c-0.2,0.2-0.5,0.1-0.8-0.1c-0.1,0.4-0.3,0.6-0.5,0.8
			c-0.2,0.2-0.5,0.2-0.8,0.2c-0.3,0-0.6-0.1-0.9-0.2c-0.3-0.1-0.6-0.3-0.8-0.5c-1.4,1.1-2.7,2.1-4.1,3.2c-1.4,1-2.6,2.2-3.7,3.6
			C52.1,94,52,94,51.9,94c0,0-0.2,0-0.4,0.1c-0.4,0.9-0.8,1.7-1.4,2.4c-0.5,0.7-1.1,1.5-1.6,2.2c-0.5,0.8-1,1.5-1.3,2.4
			c-0.4,0.8-0.6,1.8-0.6,3c0.8,0.7,1.7,1.1,2.8,1.2c1.1,0.1,2.2,0.2,3.3,0.1c1.1-0.1,2.3-0.2,3.4-0.5c1.1-0.2,2.1-0.3,3.1-0.3
			c2-0.5,3.7-1.1,5.1-1.9S67.1,101.2,68.6,100.4z"/>
		<path class="st0" d="M91.6,112.4c-0.3,1.6-1.1,2.7-2.4,3.3c-0.6,0-1.1,0-1.4-0.1c-0.3-0.1-0.6-0.2-0.9-0.4
			c-0.4-0.2-0.8-0.3-1.1-0.4l-0.8-0.6c-0.1-0.2-0.2-0.5-0.4-0.7c-0.1-0.2-0.3-0.5-0.5-0.7c-0.4-0.5-0.8-1.1-1.1-1.8
			c-0.3-1.4-0.3-2.5-0.1-3.4c0.2-0.9,0.4-1.8,0.7-2.7c0.1-0.3,0.2-0.6,0.3-0.9c0.1-0.3,0.2-0.6,0.3-0.9c-1.2-0.7-2.1-1.6-2.7-2.8
			c-0.6-1.2-1-2.4-1.1-3.5c0.1-0.9,0.4-1.6,0.8-2.1c0.4-0.5,0.8-1,1.3-1.3c0.5-0.3,1-0.6,1.5-0.8c0.5-0.2,1.1-0.4,1.6-0.5l0.9,0.4
			c0.4,0.4,0.8,0.8,1.3,1c0.3-0.1,0.6-0.4,0.7-0.7c0.1-0.3,0.2-0.6,0.3-1c0.1-0.4,0.3-0.8,0.5-1.3c0.2-0.4,0.4-0.8,0.6-1.3
			c0-0.6,0-1.2,0.3-1.7c-0.3-0.2-0.7-0.4-1.1-0.4c-0.1,0-0.3,0-0.7-0.1c-0.6-0.4-0.9-0.8-1.2-1.1c-0.2-0.3-0.4-0.6-0.6-0.9
			c-0.3-0.6-0.6-1.1-1.1-1.5l-0.7-0.5l0.4-0.7c0.1-0.1,0.1-0.2,0.1-0.4s-0.1-0.4-0.3-0.6c-0.1-0.5-0.1-0.9,0-1.1l0.1-0.7
			c0.4-0.5,0.6-0.8,0.6-0.8l0.6-0.6c0.9-0.2,1.9-0.5,2.8-0.8c0.9-0.3,1.8-0.6,2.8-0.9c0.9-0.3,1.8-0.6,2.7-0.9
			c0.9-0.3,1.8-0.6,2.8-0.8c0.3-0.2,0.7-0.4,1.1-0.5c0.4-0.1,0.7-0.1,1.1-0.2c0.3,0,0.5-0.1,0.8-0.1c0.2,0,0.4-0.1,0.5-0.2
			c0.6-0.2,1.2-0.4,2-0.6c1.2-0.3,2.7-0.7,4.6-1.1c1.9-0.4,4.1-0.7,6.5-0.9l1.2-0.1c0.2,0,0.5,0.1,0.7,0c0.2,0,0.5,0,0.7,0
			c2.1,0,3.4,0.6,4,1.9c0.4,0.2,0.8,0.5,1.1,0.8c0.3,0.3,0.6,0.6,0.9,0.8c0.1,0.2,0.3,0.4,0.5,0.5c0.2,0.1,0.3,0.2,0.4,0.3
			c0.8,1.2,1.1,2.3,0.8,3.2c-0.4,0.6-1,1-1.6,1.1l-0.8,0.4c-0.5,0-0.9-0.1-1.2-0.1c-0.3,0-0.5,0-0.8,0c-1.2,0-2.5,0.1-4.1,0.2
			s-3.1,0.3-4.7,0.6c-1.6,0.3-3.2,0.6-4.7,0.9c-1.5,0.4-2.8,0.8-3.9,1.2l-1.3,0.6c-0.3,0.5-0.5,0.9-0.6,1.2c0,0.3-0.1,0.6-0.1,0.9
			c0,0.2-0.1,0.4-0.1,0.6c0,0.2-0.1,0.4-0.1,0.6c-0.8,1-1.2,2.2-1.2,3.5c-0.3,0.6-0.5,1-0.6,1.2c-0.1,0.3-0.1,0.6,0,0.9
			c0.9,0.4,1.7,0.5,2.5,0.4c0.8-0.1,1.6-0.2,2.4-0.4c1.1-0.2,2.2-0.4,3.3-0.5c1.1-0.1,2.3-0.2,3.6-0.2h2.2l-0.6,0.6l0.4,1
			c0.3,0.1,0.5,0.2,0.6,0.3c0.1,0,0.2,0.1,0.4,0.2l0.4,0.6c0.2,0.1,0.4,0.3,0.5,0.5c0.2,0.2,0.3,0.6,0.3,1.1l-2.9,4.1l-1,0.3
			c-0.8,0-1.5,0-2.1,0.3c-0.3,0.1-0.7,0.2-1,0.2c-0.3,0.1-0.7,0.1-1.1,0.1c-0.9,0.2-1.7,0.3-2.4,0.4c-0.6,0.1-1.3,0.2-1.9,0.3
			c-0.8,0.1-1.7,0.2-2.5,0.4c-0.8,0.2-1.5,0.4-2.2,0.7c-0.5,0-0.8,0-1,0c-0.4,0-0.8,0.1-1.2,0.2c-0.4,0.1-0.8,0.2-1.1,0.3
			c-0.2,0.2-0.4,0.4-0.5,0.6c-0.1,0.2-0.2,0.4-0.3,0.7c-0.2,0.7-0.4,1.2-0.8,1.6v1.1c-0.4,0.5-0.6,0.8-0.7,1.1
			c-0.1,0.3-0.2,0.5-0.2,0.7c-0.1,0.1-0.2,0.3-0.2,0.4c0,0.1-0.1,0.2-0.1,0.4C91.7,110.7,91.7,111.5,91.6,112.4z"/>
		<path class="st0" d="M147.7,108.7c-1.4-1-2.5-2.3-3.3-3.9c-0.9-1.5-1.5-3.2-2-4.9c-0.5-1.7-0.8-3.5-1-5.4
			c-0.2-1.9-0.2-3.6-0.2-5.3c0.4-1.3,0.9-2.4,1.5-3.5c0.6-1.1,1.3-2.1,2-3c0.7-1,1.5-1.9,2.4-2.7c0.8-0.9,1.6-1.7,2.4-2.6
			c0.3,0,0.5,0.1,0.8,0.2c0.2-0.5,0.5-1,0.8-1.3c0.4-0.4,0.8-0.7,1.2-1c0.4-0.3,0.8-0.6,1.3-0.9c0.4-0.3,0.8-0.7,1.1-1.1
			c1.2-0.3,2.2-0.7,3.1-1.2c0.9-0.5,1.8-1.1,2.6-1.7c0.8-0.6,1.7-1.2,2.6-1.7c0.9-0.5,1.9-0.9,3.1-1.2c0.4-0.5,0.9-0.9,1.6-1.2
			c0.6-0.3,1.3-0.6,1.9-0.9s1.2-0.6,1.8-0.9c0.6-0.3,1.1-0.8,1.4-1.3c0.3,0.4,0.7,0.5,1.2,0.4c0.5-0.1,1-0.2,1.4-0.4
			c0.3,0,0.5,0,0.7,0.1c0.2,0.1,0.4,0.3,0.5,0.5c0.2,0.2,0.3,0.3,0.4,0.3c0.1,0,0.2-0.1,0.4-0.4c0.4,0,0.5,0.2,0.3,0.5
			c-0.2,0.3-0.3,0.5-0.3,0.6c0.5-0.1,0.9,0,1.2,0.2c0.3,0.3,0.8,0.4,1.4,0.5c0.2,0.2,0.3,0.4,0.2,0.6c-0.1,0.1-0.2,0.4-0.2,0.7
			c1.7,0.5,2.8,1.3,3.2,2.4c0.5,1.1,0.5,2.2,0.1,3.4c-0.4,1.2-1.1,2.3-2.1,3.3c-1,1-2.1,1.7-3.3,2c-1.5,0.4-2.8,0.8-4,1.1
			c-1.2,0.4-2.4,0.8-3.6,1.3c-1.1,0.5-2.2,1-3.2,1.7c-1,0.6-1.9,1.4-2.6,2.2c-1.3,0.4-2.5,0.9-3.6,1.5c-1.1,0.7-2,1.4-3,2.2
			c-0.9,0.8-1.8,1.6-2.6,2.5c-0.8,0.9-1.7,1.7-2.5,2.6c0,0.8-0.1,1.4-0.4,1.8s-0.6,0.8-0.9,1.3c0.1,0.9,0.3,1.7,0.6,2.3
			c0.3,0.6,0.6,1.3,0.9,1.9c3.7,1.1,7.7,1.8,11.9,2.1c4.2,0.3,8.4,0.4,12.5,0.5c0.4,0.6,0.9,1.1,1.4,1.6c0.5,0.5,1,1,1.5,1.5
			c0.4,0.5,0.8,1.1,1.1,1.8c0.3,0.7,0.3,1.5,0.2,2.4c-0.8,0.8-1.7,1.6-2.6,2.3c-0.9,0.7-1.9,1.4-2.8,2.1c-0.4,0-0.9,0-1.5,0
			c-0.6,0-1.2-0.1-1.8-0.1s-1.3,0-1.9,0.1s-1.2,0.2-1.8,0.5c-3-0.1-6-0.5-9.1-1.1s-6-1.4-8.6-2.3c-0.5-0.6-1.1-1.2-1.6-1.7
			C149.4,109.3,148.6,108.9,147.7,108.7z"/>
		<path class="st0" d="M222.3,108.9c-0.3,0.8-0.7,1.6-1.2,2.4c-0.5,0.8-1.2,1.5-1.9,2.2c-0.7,0.6-1.5,1.2-2.4,1.6
			c-0.9,0.4-1.8,0.7-2.8,0.7c-0.6-0.1-1-0.3-1.2-0.5c-0.2-0.2-0.4-0.3-0.7-0.5c-0.1-0.1-0.3-0.2-0.4-0.2c-0.1-0.1-0.2-0.1-0.3-0.2
			l-0.8-0.4l0.3-0.9c0.1-0.4,0.1-0.7-0.1-0.9s-0.4-0.5-0.8-0.9c-0.1-0.1-0.3-0.3-0.4-0.4s-0.3-0.3-0.4-0.4l-1.2-1.3l1.9-0.5
			c1.2-0.3,2-0.7,2.4-1.3c0.4-0.5,0.6-1.4,0.5-2.6c-0.9-0.2-1.7-0.2-2.4-0.1s-1.3,0.3-1.9,0.5c-0.8,0.2-1.7,0.4-2.6,0.6
			c-0.9,0.2-1.8,0.2-2.8,0.2c-0.4,0-0.7,0-1.1,0c-0.3,0-0.7-0.1-1.1-0.1l-0.7-0.1c-0.1-0.5-0.2-0.8-0.3-0.9
			c-0.1-0.1-0.2-0.2-0.3-0.2c-0.2-0.2-0.5-0.6-0.7-0.9c-0.3-0.4-0.3-0.9-0.2-1.5c-0.2-0.4-0.4-0.8-0.4-1.3c-0.3,0.6-0.5,1.1-0.6,1.8
			l-0.3,0.7l-0.7,0.1c-0.1,0-0.2,0.2-0.2,0.3c0,0.2-0.1,0.3-0.1,0.4l-0.4,1.2c-0.1,0.1-0.2,0.2-0.3,0.2c-0.1,0.1-0.2,0.2-0.3,0.2
			c-0.1,0.4-0.2,0.8-0.4,1.3s-0.3,0.8-0.4,1.2c-0.2,0.6-0.4,1.2-0.6,1.8c-0.2,0.6-0.2,1.2-0.2,1.7l-0.3,0.8
			c-0.2,0.3-0.5,0.5-0.8,0.7c-0.3,0.2-0.6,0.3-0.8,0.5c-0.1,0.1-0.2,0.2-0.4,0.2c-0.2,0.1-0.3,0.1-0.4,0.2l-0.2,0.8l-0.8,0.1
			c-0.5,0.1-0.9,0.2-1.1,0.2c-0.2,0-0.5,0.1-0.7,0.1l-0.7-0.1c-0.5-0.4-0.9-0.8-1.2-1c-0.3-0.3-0.6-0.5-1-0.7
			c-0.4-0.6-0.7-1-0.7-1.3c0-0.3-0.1-0.5-0.1-0.8c-0.1-0.3-0.2-0.5-0.2-0.7c0-0.2-0.1-0.3-0.2-0.4l-0.9-0.8l0.8-0.6l0.1-1.2
			c0.9-2.4,1.9-4.7,3-6.9c1.1-2.2,2.1-4.5,3.3-6.8c0.4-0.7,0.7-1.5,1.1-2.2c0.4-0.7,0.7-1.5,1.1-2.2c0-0.1-0.1-0.3-0.1-0.5
			c0-0.2,0-0.4,0.1-0.6c0.5-0.8,0.9-1.5,1.3-2.1c0.3-0.6,0.7-1.3,1-1.9c0.4-0.8,0.8-1.6,1.2-2.3c0.4-0.7,0.9-1.5,1.5-2.3l1.1-0.5
			c0.1,0,0.3-0.1,0.5-0.2c0.2-0.1,0.4-0.1,0.6-0.1l1.1,0.1c1.3-0.6,2.5-1.5,3.4-2.6c1-1.1,2-2.4,3-4l0.7-1l0.9,0.6
			c0.2,0.1,0.6,0.3,1,0.4c0.4,0.1,0.9,0.2,1.3,0.4c0.8,0.2,1.6,0.4,2.4,0.6c0.7,0.2,1.4,0.6,1.8,1.1c0.3,0.8,0.4,1.3,0.5,1.7
			c0,0.4,0.1,0.8,0.2,1.1c0.1,0.8,0.3,1.6,0.4,2.4c0.1,0.8,0.2,1.7,0.2,2.7c0.2,0.8,0.4,1.6,0.6,2.4c0.2,0.8,0.3,1.6,0.5,2.4
			c0.2,1.1,0.5,2.2,0.7,3.3c0.2,1.1,0.5,2.1,0.9,3c0.4,0,0.6,0,0.7,0.1c0.2-0.1,0.5-0.2,0.7-0.2c0.3,0,0.6-0.1,0.9-0.1l0.8-0.1
			l0.3,0.7c0,0.2,0.3,0.5,0.7,0.7c0.6,0,1.1,0.2,1.3,0.4s0.5,0.4,0.8,0.7c0.2,0.2,0.4,0.3,0.6,0.4l1.1,0.4l-0.6,1.1
			c-0.5,0.8-1.1,1.7-2,2.4c-0.9,0.8-1.8,1.4-2.9,1.9c0,0.3,0.1,0.6,0.1,0.8c0,0.3,0.1,0.5,0.2,0.8c0.1,0.8,0.3,1.6,0.4,2.5
			c0.1,0.8,0.1,1.7,0,2.6L222.3,108.9z M202,96.7c1.4-0.1,2.7-0.2,3.8-0.3c1.1-0.1,2.4-0.3,3.8-0.6c-0.3-1.4-0.7-2.9-1.1-4.4
			c-0.4-1.5-0.8-3-1.2-4.5l-0.4,0.7c-0.9,1-1.8,2.1-2.7,3.3c-0.9,1.2-1.6,2.4-2.2,3.4c-0.3,0.4-0.6,0.8-0.8,1.3s-0.5,0.8-0.8,1.3
			c0.3,0,0.6-0.1,0.8-0.1C201.5,96.8,201.8,96.8,202,96.7z"/>
		<path class="st0" d="M241.9,109.9c0.2,1.4,0.2,2.5-0.2,3.3c-0.4,0.8-1,1.4-1.7,1.8c-0.7,0.4-1.6,0.6-2.5,0.7c-0.9,0-1.8,0-2.7-0.1
			c-0.5-0.7-0.9-1.5-1.3-2.5c-0.4-1-0.7-2-1.1-3.1c-0.3-1.1-0.6-2.1-0.9-3.1c-0.3-1-0.5-1.9-0.7-2.7c0.2-0.6,0.4-1.2,0.5-1.9
			c0.1-0.7,0.1-1.5,0.1-2.2c0-0.7,0-1.5,0.1-2.3c0-0.8,0.1-1.5,0.2-2.2c0.3-2,0.8-3.8,1.4-5.6c0.6-1.8,1.1-3.6,1.5-5.6
			c0.1-0.4,0.1-0.8-0.1-1.2c-0.2-0.4-0.2-0.7-0.1-1.1c0-0.2,0.2-0.3,0.4-0.4c0.2-0.1,0.4-0.2,0.4-0.5c0.1-0.5,0.2-0.9,0.1-1.3
			c-0.1-0.3,0-0.7,0.2-1.2c0.2-0.4,0.5-0.9,0.9-1.7c0.4-0.7,0.5-1.5,0.4-2.3c0.4-0.3,0.8-0.6,1.2-1c0.4-0.4,0.8-0.7,1.2-1
			c0.4-0.3,0.8-0.6,1.3-0.8c0.5-0.2,1.1-0.4,1.8-0.4c0.4,0.5,0.6,1,0.7,1.5c0.1,0.6,0.2,1.1,0.4,1.7c0.1,0.6,0.3,1.1,0.5,1.6
			c0.2,0.5,0.6,0.9,1.2,1.2c0,0.4,0,0.8,0,1.4s0,1.1,0.1,1.7c0,0.5,0.2,1,0.3,1.5c0.2,0.4,0.4,0.7,0.8,0.9c-0.8,2.2-1.6,4.5-2.4,6.7
			c-0.7,2.2-1.3,4.4-1.8,6.6c-0.5,2.2-0.8,4.5-0.9,6.7C241.3,105.3,241.5,107.6,241.9,109.9z"/>
		<path class="st0" d="M264.5,102c-0.4,0.1-0.7,0.3-0.9,0.7c-0.2,0.4-0.4,0.8-0.5,1.2c-0.2,0.4-0.3,0.8-0.5,1.2
			c-0.2,0.4-0.4,0.5-0.7,0.5c0,0.4-0.2,0.7-0.4,1s-0.4,0.6-0.6,0.9c-0.2,0.3-0.3,0.6-0.4,1c-0.1,0.4,0,0.8,0.1,1.2
			c-0.4,0.3-0.6,0.7-0.7,1.2c-0.1,0.5-0.2,1-0.3,1.5c-0.1,0.5-0.3,0.9-0.6,1.2c-0.3,0.3-0.8,0.5-1.5,0.4c-0.1,0.2-0.2,0.3-0.1,0.4
			c0.1,0,0.2,0.2,0.2,0.5c-0.5-0.1-0.9-0.1-1.2,0.1c-0.3,0.2-0.6,0.3-0.9,0.3c-0.9-0.3-1.6-0.8-2.2-1.5c-0.6-0.7-1.1-1.5-1.5-2.4
			c-0.4-0.9-0.8-1.7-1.2-2.6c-0.4-0.9-0.7-1.7-1-2.3c0.1-0.5,0.2-1,0.1-1.5c-0.1-0.5-0.3-0.9-0.5-1.2c2.3-4.9,4.8-10.1,7.5-15.6
			c2.7-5.5,5.3-11,7.7-16.4c1.1,0.4,2.1,0.9,3.2,1.4c1.1,0.5,2,1.2,2.9,1.9c0.9,0.7,1.6,1.5,2.2,2.4c0.6,0.9,1,1.9,1.2,3.1
			c-0.1,0.3-0.2,0.4-0.3,0.3c-0.1-0.1-0.2,0-0.3,0.1c0.2,0.2,0.3,0.4,0.3,0.5c0,0.1,0,0.2,0,0.3c0,0.1,0,0.2,0,0.4
			c0,0.2,0.1,0.4,0.2,0.7c-0.2,0-0.3,0-0.4,0.1c-0.1,0.1-0.2,0.1-0.5,0c0.2,0.5,0.2,0.9,0.2,1.3c-0.1,0.3-0.2,0.6-0.3,0.9
			c-0.1,0.3-0.3,0.5-0.4,0.8c-0.1,0.3-0.1,0.7,0.1,1.2c-0.1,0-0.2,0-0.3,0.1s-0.1,0.1-0.2,0.2c0,0.1-0.1,0.1-0.2,0.2s-0.2,0.1-0.3,0
			c0.1,1,0.2,2.1,0.1,3.1c0,1-0.1,2.1-0.1,3.1c0,1.1,0,2.2,0,3.3c0,1.1,0.2,2.3,0.5,3.6c1.7-1,3-2.2,4-3.8c1-1.5,1.8-3.3,2.5-5.2
			c0.6-1.9,1.1-4,1.4-6.2c0.3-2.2,0.7-4.5,1.1-6.8c0.4-0.4,0.7-0.9,1-1.5c0.2-0.6,0.4-1.3,0.6-1.9c0.2-0.7,0.4-1.4,0.6-2
			c0.2-0.7,0.4-1.3,0.7-1.9c0.7,0.1,1.3,0.3,1.8,0.7s0.9,0.7,1.4,1.1c0.4,0.4,0.9,0.8,1.3,1.1c0.5,0.4,1.1,0.6,1.8,0.7
			c0.6,0.8,1.1,1.6,1.5,2.3c0.5,0.8,0.8,1.5,0.9,2.4c-0.2,0.4-0.4,0.8-0.5,1.3c-0.1,0.5-0.2,0.9-0.4,1.4c-0.1,0.5-0.3,0.9-0.6,1.3
			c-0.2,0.4-0.6,0.7-1,1c-0.1,1.2-0.3,2.3-0.5,3.3c-0.2,1-0.4,2-0.6,3s-0.4,2-0.5,3.1s-0.2,2.2-0.1,3.5c-0.4,1.1-0.8,2.2-1.2,3.4
			c-0.4,1.2-0.8,2.3-1,3.3c-0.8,0.6-1.3,1.3-1.8,2.2s-0.9,1.7-1.3,2.5c-0.2,0.2-0.3,0.2-0.4,0.1c0-0.1-0.2-0.2-0.5-0.2
			c0,0.2,0,0.3,0,0.4c0,0.1-0.1,0.2-0.2,0.2s-0.1,0.2-0.1,0.3c0,0.1,0,0.3,0.1,0.6c-0.7,0.3-1.2,0.7-1.8,1.2c-0.5,0.5-1.1,1-1.7,1.4
			c-0.6,0.4-1.3,0.7-2.1,0.8c-0.8,0.1-1.9,0-3.2-0.5c-1.9-1.4-3.6-3-5.1-4.9S265.4,104.5,264.5,102z"/>
		<path class="st0" d="M329.9,75.2c0,0.3,0.1,0.6,0,0.7c0,0.2,0,0.3-0.1,0.5c0,0.1,0,0.3,0,0.5c0,0.2,0,0.4,0.1,0.7
			c-1,1.6-2.1,2.7-3.4,3.3c-1.3,0.6-2.7,1-4.2,1.3c-1.5,0.3-3,0.5-4.6,0.8c-1.6,0.3-3.1,0.9-4.7,1.8c-0.6-0.2-1.2-0.2-1.7,0
			c-0.5,0.2-1.2,0.3-2.1,0.2c-0.3,0.3-0.6,0.5-1.1,0.6c-0.4,0.1-0.8,0.2-1.3,0.4c0.2,0.4,0.3,0.9,0.2,1.3c0,0.4,0,0.8,0.2,1.1
			c1.6,0.1,3.5,0.1,5.4-0.1c2-0.2,3.9-0.3,5.9-0.4c0,0.2,0,0.4-0.1,0.5c-0.1,0.1-0.1,0.2-0.1,0.4c0.3,0.2,0.7,0.5,1,0.9
			c0.3,0.4,0.7,0.7,1,1c0.3,0.3,0.7,0.6,1,0.8s0.8,0.3,1.2,0.2c0.2,0.4,0.3,0.8,0.4,1.2c0.1,0.4,0,0.9-0.2,1.4
			c-0.8,0.5-1.5,1-2.2,1.6c-0.8,0.5-1.5,1-2.4,1.4c-0.8,0.4-1.7,0.8-2.6,1c-0.9,0.3-1.9,0.4-3.1,0.3c-0.2,0-0.4,0-0.5,0
			c-0.1,0-0.3-0.1-0.5-0.2c-0.4,0.2-0.9,0.3-1.6,0.2c-0.7-0.1-1.2,0-1.6,0.2c-0.5-0.2-1.1-0.3-1.9-0.3c-0.7,0-1.4-0.1-1.9-0.2
			c-0.8,1-1.4,2-2,3.2c-0.6,1.1-1.1,2.3-1.6,3.6c1.6,0.2,2.9,0.3,4,0.3c1.1,0,2-0.1,3-0.2c0.9-0.1,1.9-0.2,2.9-0.4
			c1-0.1,2.2-0.2,3.7-0.1c0.9-0.5,2-0.9,3.3-1c1.3-0.2,2.5-0.4,3.6-0.8c0.4,0.1,0.7,0.4,1,0.7s0.6,0.7,0.8,1
			c0.3,0.3,0.5,0.6,0.8,0.8c0.3,0.2,0.6,0.3,1.1,0.3c0.2,0.2,0.3,0.4,0.4,0.7c0.1,0.3,0.1,0.5,0.2,0.7c0,0.2,0.1,0.4,0.2,0.6
			c0.1,0.2,0.3,0.2,0.6,0.2c-0.7,1.5-1.5,2.7-2.4,3.6c-0.9,0.8-2,1.4-3.1,1.9c-1.2,0.4-2.5,0.8-3.9,1c-1.4,0.2-3,0.5-4.7,0.8
			c-0.4,0.1-0.8,0.1-1.1,0c-0.3-0.1-0.6-0.2-1-0.2c-1.1,0.2-2.4,0.4-3.9,0.6c-1.5,0.2-3,0.3-4.6,0.2c-1.5,0-3-0.2-4.4-0.6
			s-2.6-1-3.4-1.9c-0.4-0.3-0.6-0.7-0.7-1.2c-0.1-0.4-0.4-0.8-0.9-1c0-0.6-0.1-1.3-0.3-2c-0.1-0.7-0.3-1.5-0.4-2.4
			c-0.1-0.8-0.2-1.6-0.3-2.4c-0.1-0.8,0-1.5,0.1-2.2c0.1-0.7,0.4-1.3,0.9-1.9c0.4-0.6,0.6-1.2,0.5-1.8c0.2,0,0.4-0.2,0.4-0.4
			c0-0.2,0.2-0.3,0.6-0.2c0.3-0.8,0.6-1.6,0.9-2.4c0.3-0.7,0.7-1.5,1-2.2s0.7-1.4,1.1-2.1c0.4-0.7,0.7-1.5,1-2.4
			c-0.7-0.6-1.1-1.3-1.4-2c-0.3-0.7-0.5-1.5-0.7-2.2c-0.1-0.7-0.3-1.5-0.4-2.2c-0.1-0.8-0.3-1.6-0.5-2.4c0.5-0.7,1-1.3,1.7-1.7
			c0.7-0.4,1.4-0.8,2.2-1.1c0.8-0.3,1.7-0.5,2.6-0.7c0.9-0.2,1.9-0.4,3-0.6c1.9-0.6,3.6-1.1,5-1.4c1.5-0.3,2.9-0.6,4.4-0.8
			c1.4-0.2,2.9-0.4,4.5-0.6c1.5-0.2,3.3-0.5,5.3-0.8c0.4,0.4,0.8,0.6,1.2,0.6c0.2-0.4,0.4-0.6,0.7-0.4c0.3,0.2,0.4,0,0.3-0.4
			c0.5,0.8,1.1,1.5,1.8,2C328.2,74.4,329,74.8,329.9,75.2z"/>
	</g>
</g>
</svg>
